<mxfile host="Electron" agent="Mozilla/5.0 (X11; Linux x86_64) AppleWebKit/537.36 (KHTML, like Gecko) draw.io/26.0.9 Chrome/128.0.6613.186 Electron/32.3.0 Safari/537.36" version="26.0.9">
  <diagram name="Page-1" id="xMNqmqtYVjxnOP087IcN">
    <mxGraphModel dx="993" dy="718" grid="1" gridSize="10" guides="1" tooltips="1" connect="1" arrows="1" fold="1" page="1" pageScale="1" pageWidth="1200" pageHeight="1920" math="0" shadow="0">
      <root>
        <mxCell id="0" />
        <mxCell id="1" parent="0" />
        <mxCell id="1p1rBsf9ZJR8HcO2G5rF-33" value="" style="rounded=0;whiteSpace=wrap;html=1;fillColor=none;dashed=1;" parent="1" vertex="1">
          <mxGeometry x="160" y="240" width="520" height="240" as="geometry" />
        </mxCell>
        <mxCell id="1p1rBsf9ZJR8HcO2G5rF-8" value="" style="group" parent="1" vertex="1" connectable="0">
          <mxGeometry x="400" y="330" width="200" height="60" as="geometry" />
        </mxCell>
        <mxCell id="1p1rBsf9ZJR8HcO2G5rF-1" value="DFF" style="rounded=1;whiteSpace=wrap;html=1;" parent="1p1rBsf9ZJR8HcO2G5rF-8" vertex="1">
          <mxGeometry x="40" width="120" height="60" as="geometry" />
        </mxCell>
        <mxCell id="1p1rBsf9ZJR8HcO2G5rF-2" value="" style="endArrow=classic;html=1;rounded=0;entryX=0;entryY=0.5;entryDx=0;entryDy=0;" parent="1p1rBsf9ZJR8HcO2G5rF-8" target="1p1rBsf9ZJR8HcO2G5rF-1" edge="1">
          <mxGeometry width="50" height="50" relative="1" as="geometry">
            <mxPoint y="30" as="sourcePoint" />
            <mxPoint y="20" as="targetPoint" />
          </mxGeometry>
        </mxCell>
        <mxCell id="1p1rBsf9ZJR8HcO2G5rF-3" value="in" style="edgeLabel;html=1;align=center;verticalAlign=middle;resizable=0;points=[];fontSize=9;" parent="1p1rBsf9ZJR8HcO2G5rF-2" vertex="1" connectable="0">
          <mxGeometry x="-0.1967" y="-1" relative="1" as="geometry">
            <mxPoint as="offset" />
          </mxGeometry>
        </mxCell>
        <mxCell id="1p1rBsf9ZJR8HcO2G5rF-4" value="" style="endArrow=classic;html=1;rounded=0;entryX=0;entryY=0.5;entryDx=0;entryDy=0;" parent="1p1rBsf9ZJR8HcO2G5rF-8" edge="1">
          <mxGeometry width="50" height="50" relative="1" as="geometry">
            <mxPoint x="160" y="29.80000000000001" as="sourcePoint" />
            <mxPoint x="200" y="29.80000000000001" as="targetPoint" />
          </mxGeometry>
        </mxCell>
        <mxCell id="1p1rBsf9ZJR8HcO2G5rF-5" value="out" style="edgeLabel;html=1;align=center;verticalAlign=middle;resizable=0;points=[];fontSize=9;" parent="1p1rBsf9ZJR8HcO2G5rF-4" vertex="1" connectable="0">
          <mxGeometry x="-0.1967" y="-1" relative="1" as="geometry">
            <mxPoint as="offset" />
          </mxGeometry>
        </mxCell>
        <mxCell id="1p1rBsf9ZJR8HcO2G5rF-7" value="" style="triangle;whiteSpace=wrap;html=1;direction=north;" parent="1p1rBsf9ZJR8HcO2G5rF-8" vertex="1">
          <mxGeometry x="90" y="40" width="20" height="20" as="geometry" />
        </mxCell>
        <mxCell id="1p1rBsf9ZJR8HcO2G5rF-20" value="" style="endArrow=classic;html=1;rounded=0;" parent="1" edge="1">
          <mxGeometry width="50" height="50" relative="1" as="geometry">
            <mxPoint x="80" y="380" as="sourcePoint" />
            <mxPoint x="160" y="380" as="targetPoint" />
          </mxGeometry>
        </mxCell>
        <mxCell id="1p1rBsf9ZJR8HcO2G5rF-21" value="&lt;font style=&quot;font-size: 15px;&quot;&gt;in&lt;/font&gt;" style="edgeLabel;html=1;align=center;verticalAlign=middle;resizable=0;points=[];" parent="1p1rBsf9ZJR8HcO2G5rF-20" vertex="1" connectable="0">
          <mxGeometry x="-0.0034" relative="1" as="geometry">
            <mxPoint as="offset" />
          </mxGeometry>
        </mxCell>
        <mxCell id="1p1rBsf9ZJR8HcO2G5rF-22" value="" style="endArrow=classic;html=1;rounded=0;" parent="1" edge="1">
          <mxGeometry width="50" height="50" relative="1" as="geometry">
            <mxPoint x="680" y="359.5" as="sourcePoint" />
            <mxPoint x="760" y="359.5" as="targetPoint" />
          </mxGeometry>
        </mxCell>
        <mxCell id="1p1rBsf9ZJR8HcO2G5rF-23" value="&lt;font style=&quot;font-size: 15px;&quot;&gt;out&lt;/font&gt;" style="edgeLabel;html=1;align=center;verticalAlign=middle;resizable=0;points=[];" parent="1p1rBsf9ZJR8HcO2G5rF-22" vertex="1" connectable="0">
          <mxGeometry x="-0.0034" relative="1" as="geometry">
            <mxPoint as="offset" />
          </mxGeometry>
        </mxCell>
        <mxCell id="1p1rBsf9ZJR8HcO2G5rF-25" value="" style="endArrow=classic;html=1;rounded=0;edgeStyle=orthogonalEdgeStyle;" parent="1" edge="1">
          <mxGeometry width="50" height="50" relative="1" as="geometry">
            <mxPoint x="600" y="360" as="sourcePoint" />
            <mxPoint x="240" y="340" as="targetPoint" />
            <Array as="points">
              <mxPoint x="600" y="280" />
              <mxPoint x="200" y="280" />
              <mxPoint x="200" y="340" />
            </Array>
          </mxGeometry>
        </mxCell>
        <mxCell id="1p1rBsf9ZJR8HcO2G5rF-26" value="" style="endArrow=classic;html=1;rounded=0;" parent="1" edge="1">
          <mxGeometry width="50" height="50" relative="1" as="geometry">
            <mxPoint x="160" y="380" as="sourcePoint" />
            <mxPoint x="240" y="380" as="targetPoint" />
          </mxGeometry>
        </mxCell>
        <mxCell id="1p1rBsf9ZJR8HcO2G5rF-27" value="" style="endArrow=classic;html=1;rounded=0;entryX=0.307;entryY=1.012;entryDx=0;entryDy=0;entryPerimeter=0;" parent="1" target="1p1rBsf9ZJR8HcO2G5rF-33" edge="1">
          <mxGeometry width="50" height="50" relative="1" as="geometry">
            <mxPoint x="319.66" y="560" as="sourcePoint" />
            <mxPoint x="319.66" y="640" as="targetPoint" />
          </mxGeometry>
        </mxCell>
        <mxCell id="1p1rBsf9ZJR8HcO2G5rF-28" value="&lt;font style=&quot;font-size: 15px;&quot;&gt;load&lt;/font&gt;" style="edgeLabel;html=1;align=center;verticalAlign=middle;resizable=0;points=[];" parent="1p1rBsf9ZJR8HcO2G5rF-27" vertex="1" connectable="0">
          <mxGeometry x="-0.0034" relative="1" as="geometry">
            <mxPoint as="offset" />
          </mxGeometry>
        </mxCell>
        <mxCell id="1p1rBsf9ZJR8HcO2G5rF-30" value="" style="endArrow=classic;html=1;rounded=0;" parent="1" edge="1">
          <mxGeometry width="50" height="50" relative="1" as="geometry">
            <mxPoint x="320" y="481" as="sourcePoint" />
            <mxPoint x="320" y="420" as="targetPoint" />
          </mxGeometry>
        </mxCell>
        <mxCell id="1p1rBsf9ZJR8HcO2G5rF-32" value="" style="endArrow=classic;html=1;rounded=0;" parent="1" edge="1">
          <mxGeometry width="50" height="50" relative="1" as="geometry">
            <mxPoint x="600" y="359.58" as="sourcePoint" />
            <mxPoint x="680" y="359.58" as="targetPoint" />
          </mxGeometry>
        </mxCell>
        <mxCell id="1p1rBsf9ZJR8HcO2G5rF-15" style="rounded=0;orthogonalLoop=1;jettySize=auto;html=1;" parent="1" source="1p1rBsf9ZJR8HcO2G5rF-10" edge="1">
          <mxGeometry relative="1" as="geometry">
            <mxPoint x="400" y="360" as="targetPoint" />
          </mxGeometry>
        </mxCell>
        <mxCell id="1p1rBsf9ZJR8HcO2G5rF-16" value="out" style="edgeLabel;html=1;align=center;verticalAlign=middle;resizable=0;points=[];fontSize=9;" parent="1p1rBsf9ZJR8HcO2G5rF-15" vertex="1" connectable="0">
          <mxGeometry x="-0.0129" relative="1" as="geometry">
            <mxPoint as="offset" />
          </mxGeometry>
        </mxCell>
        <mxCell id="1p1rBsf9ZJR8HcO2G5rF-10" value="Mux" style="triangle;whiteSpace=wrap;html=1;" parent="1" vertex="1">
          <mxGeometry x="280" y="320" width="80" height="80" as="geometry" />
        </mxCell>
        <mxCell id="1p1rBsf9ZJR8HcO2G5rF-11" value="" style="endArrow=classic;html=1;rounded=0;entryX=0.5;entryY=1;entryDx=0;entryDy=0;exitX=0.308;exitY=0.75;exitDx=0;exitDy=0;exitPerimeter=0;" parent="1" source="1p1rBsf9ZJR8HcO2G5rF-33" target="1p1rBsf9ZJR8HcO2G5rF-10" edge="1">
          <mxGeometry width="50" height="50" relative="1" as="geometry">
            <mxPoint x="320" y="300" as="sourcePoint" />
            <mxPoint x="370" y="410" as="targetPoint" />
          </mxGeometry>
        </mxCell>
        <mxCell id="1p1rBsf9ZJR8HcO2G5rF-12" value="sel" style="edgeLabel;html=1;align=center;verticalAlign=middle;resizable=0;points=[];" parent="1p1rBsf9ZJR8HcO2G5rF-11" vertex="1" connectable="0">
          <mxGeometry x="0.026" relative="1" as="geometry">
            <mxPoint as="offset" />
          </mxGeometry>
        </mxCell>
        <mxCell id="1p1rBsf9ZJR8HcO2G5rF-13" value="" style="endArrow=classic;html=1;rounded=0;entryX=0;entryY=0.25;entryDx=0;entryDy=0;" parent="1" target="1p1rBsf9ZJR8HcO2G5rF-10" edge="1">
          <mxGeometry width="50" height="50" relative="1" as="geometry">
            <mxPoint x="240" y="340" as="sourcePoint" />
            <mxPoint x="320" y="380" as="targetPoint" />
          </mxGeometry>
        </mxCell>
        <mxCell id="1p1rBsf9ZJR8HcO2G5rF-17" value="a" style="edgeLabel;html=1;align=center;verticalAlign=middle;resizable=0;points=[];" parent="1p1rBsf9ZJR8HcO2G5rF-13" vertex="1" connectable="0">
          <mxGeometry x="0.0136" relative="1" as="geometry">
            <mxPoint as="offset" />
          </mxGeometry>
        </mxCell>
        <mxCell id="1p1rBsf9ZJR8HcO2G5rF-14" value="" style="endArrow=classic;html=1;rounded=0;entryX=0;entryY=0.25;entryDx=0;entryDy=0;" parent="1" edge="1">
          <mxGeometry width="50" height="50" relative="1" as="geometry">
            <mxPoint x="240" y="380" as="sourcePoint" />
            <mxPoint x="280" y="380" as="targetPoint" />
          </mxGeometry>
        </mxCell>
        <mxCell id="1p1rBsf9ZJR8HcO2G5rF-18" value="b" style="edgeLabel;html=1;align=center;verticalAlign=middle;resizable=0;points=[];" parent="1p1rBsf9ZJR8HcO2G5rF-14" vertex="1" connectable="0">
          <mxGeometry x="0.0136" y="1" relative="1" as="geometry">
            <mxPoint as="offset" />
          </mxGeometry>
        </mxCell>
        <mxCell id="1p1rBsf9ZJR8HcO2G5rF-34" value="Bit" style="text;html=1;align=center;verticalAlign=middle;whiteSpace=wrap;rounded=0;fontSize=30;" parent="1" vertex="1">
          <mxGeometry x="370" y="80" width="60" height="30" as="geometry" />
        </mxCell>
      </root>
    </mxGraphModel>
  </diagram>
</mxfile>
